<svg xmlns="http://www.w3.org/2000/svg" width="580" height="120" viewBox="0 0 580 120">
  <defs></defs>
  <g transform="translate(-2.51,-35.82) scale(1.7910)"><defs><clipPath id="lkhead"><path d="M 43 87 L 43 69 C 35 68, 30 63, 29 54 C 24 52, 23 43, 28 34 C 35 24, 47 20, 57 27 C 62 31, 62 39, 58 44 L 65 51 C 66 53, 64 55, 59 56 C 56 57, 56 60, 58 63 C 60 66, 58 69, 53 71 C 50 72, 49 75, 49 87 Z"></path></clipPath><mask id="lkm" maskUnits="userSpaceOnUse" x="-50" y="-50" width="200" height="200"><rect x="-50" y="-50" width="200" height="200" fill="white"></rect><g clip-path="url(#lkhead)"><circle cx="2" cy="34" r="0.6" fill="black"></circle><circle cx="4.82" cy="34.62" r="0.79" fill="black"></circle><circle cx="7.64" cy="35.19" r="0.97" fill="black"></circle><circle cx="10.45" cy="35.66" r="1.14" fill="black"></circle><circle cx="13.27" cy="36" r="1.3" fill="black"></circle><circle cx="16.09" cy="36.18" r="1.45" fill="black"></circle><circle cx="18.91" cy="36.18" r="1.58" fill="black"></circle><circle cx="21.73" cy="36" r="1.69" fill="black"></circle><circle cx="24.55" cy="35.66" r="1.78" fill="black"></circle><circle cx="27.36" cy="35.19" r="1.85" fill="black"></circle><circle cx="30.18" cy="34.62" r="1.89" fill="black"></circle><circle cx="33" cy="34" r="1.9" fill="black"></circle><circle cx="35.82" cy="33.38" r="1.89" fill="black"></circle><circle cx="38.64" cy="32.81" r="1.85" fill="black"></circle><circle cx="41.45" cy="32.34" r="1.78" fill="black"></circle><circle cx="44.27" cy="32" r="1.69" fill="black"></circle><circle cx="47.09" cy="31.82" r="1.58" fill="black"></circle><circle cx="49.91" cy="31.82" r="1.45" fill="black"></circle><circle cx="52.73" cy="32" r="1.3" fill="black"></circle><circle cx="55.55" cy="32.34" r="1.14" fill="black"></circle><circle cx="58.36" cy="32.81" r="0.97" fill="black"></circle><circle cx="61.18" cy="33.38" r="0.79" fill="black"></circle><circle cx="64" cy="34" r="0.6" fill="black"></circle><circle cx="2" cy="44.42" r="0.6" fill="black"></circle><circle cx="4.82" cy="44.83" r="0.79" fill="black"></circle><circle cx="7.64" cy="45.1" r="0.97" fill="black"></circle><circle cx="10.45" cy="45.2" r="1.14" fill="black"></circle><circle cx="13.27" cy="45.12" r="1.3" fill="black"></circle><circle cx="16.09" cy="44.87" r="1.45" fill="black"></circle><circle cx="18.91" cy="44.46" r="1.58" fill="black"></circle><circle cx="21.73" cy="43.94" r="1.69" fill="black"></circle><circle cx="24.55" cy="43.34" r="1.78" fill="black"></circle><circle cx="27.36" cy="42.72" r="1.85" fill="black"></circle><circle cx="30.18" cy="42.11" r="1.89" fill="black"></circle><circle cx="33" cy="41.58" r="1.9" fill="black"></circle><circle cx="35.82" cy="41.17" r="1.89" fill="black"></circle><circle cx="38.64" cy="40.9" r="1.85" fill="black"></circle><circle cx="41.45" cy="40.8" r="1.78" fill="black"></circle><circle cx="44.27" cy="40.88" r="1.69" fill="black"></circle><circle cx="47.09" cy="41.13" r="1.58" fill="black"></circle><circle cx="49.91" cy="41.54" r="1.45" fill="black"></circle><circle cx="52.73" cy="42.06" r="1.3" fill="black"></circle><circle cx="55.55" cy="42.66" r="1.14" fill="black"></circle><circle cx="58.36" cy="43.28" r="0.97" fill="black"></circle><circle cx="61.18" cy="43.89" r="0.79" fill="black"></circle><circle cx="64" cy="44.42" r="0.6" fill="black"></circle><circle cx="2" cy="53.17" r="0.6" fill="black"></circle><circle cx="4.82" cy="53.19" r="0.79" fill="black"></circle><circle cx="7.64" cy="53.03" r="0.97" fill="black"></circle><circle cx="10.45" cy="52.7" r="1.14" fill="black"></circle><circle cx="13.27" cy="52.24" r="1.3" fill="black"></circle><circle cx="16.09" cy="51.68" r="1.45" fill="black"></circle><circle cx="18.91" cy="51.06" r="1.58" fill="black"></circle><circle cx="21.73" cy="50.44" r="1.69" fill="black"></circle><circle cx="24.55" cy="49.86" r="1.78" fill="black"></circle><circle cx="27.36" cy="49.38" r="1.85" fill="black"></circle><circle cx="30.18" cy="49.03" r="1.89" fill="black"></circle><circle cx="33" cy="48.83" r="1.9" fill="black"></circle><circle cx="35.82" cy="48.81" r="1.89" fill="black"></circle><circle cx="38.64" cy="48.97" r="1.85" fill="black"></circle><circle cx="41.45" cy="49.3" r="1.78" fill="black"></circle><circle cx="44.27" cy="49.76" r="1.69" fill="black"></circle><circle cx="47.09" cy="50.32" r="1.58" fill="black"></circle><circle cx="49.91" cy="50.94" r="1.45" fill="black"></circle><circle cx="52.73" cy="51.56" r="1.3" fill="black"></circle><circle cx="55.55" cy="52.14" r="1.14" fill="black"></circle><circle cx="58.36" cy="52.62" r="0.97" fill="black"></circle><circle cx="61.18" cy="52.97" r="0.79" fill="black"></circle><circle cx="64" cy="53.17" r="0.6" fill="black"></circle><circle cx="2" cy="61.9" r="0.6" fill="black"></circle><circle cx="4.82" cy="61.51" r="0.79" fill="black"></circle><circle cx="7.64" cy="61" r="0.97" fill="black"></circle><circle cx="10.45" cy="60.4" r="1.14" fill="black"></circle><circle cx="13.27" cy="59.78" r="1.3" fill="black"></circle><circle cx="16.09" cy="59.17" r="1.45" fill="black"></circle><circle cx="18.91" cy="58.63" r="1.58" fill="black"></circle><circle cx="21.73" cy="58.2" r="1.69" fill="black"></circle><circle cx="24.55" cy="57.92" r="1.78" fill="black"></circle><circle cx="27.36" cy="57.8" r="1.85" fill="black"></circle><circle cx="30.18" cy="57.86" r="1.89" fill="black"></circle><circle cx="33" cy="58.1" r="1.9" fill="black"></circle><circle cx="35.82" cy="58.49" r="1.89" fill="black"></circle><circle cx="38.64" cy="59" r="1.85" fill="black"></circle><circle cx="41.45" cy="59.6" r="1.78" fill="black"></circle><circle cx="44.27" cy="60.22" r="1.69" fill="black"></circle><circle cx="47.09" cy="60.83" r="1.58" fill="black"></circle><circle cx="49.91" cy="61.37" r="1.45" fill="black"></circle><circle cx="52.73" cy="61.8" r="1.3" fill="black"></circle><circle cx="55.55" cy="62.08" r="1.14" fill="black"></circle><circle cx="58.36" cy="62.2" r="0.97" fill="black"></circle><circle cx="61.18" cy="62.14" r="0.79" fill="black"></circle><circle cx="64" cy="61.9" r="0.6" fill="black"></circle></g></mask></defs><g fill="#2C2418" mask="url(#lkm)"><circle cx="2" cy="34" r="0.6"></circle><circle cx="4.82" cy="34.62" r="0.79"></circle><circle cx="7.64" cy="35.19" r="0.97"></circle><circle cx="10.45" cy="35.66" r="1.14"></circle><circle cx="13.27" cy="36" r="1.3"></circle><circle cx="16.09" cy="36.18" r="1.45"></circle><circle cx="18.91" cy="36.18" r="1.58"></circle><circle cx="21.73" cy="36" r="1.69"></circle><circle cx="24.55" cy="35.66" r="1.78"></circle><circle cx="27.36" cy="35.19" r="1.85"></circle><circle cx="30.18" cy="34.62" r="1.89"></circle><circle cx="33" cy="34" r="1.9"></circle><circle cx="35.82" cy="33.38" r="1.89"></circle><circle cx="38.64" cy="32.81" r="1.85"></circle><circle cx="41.45" cy="32.34" r="1.78"></circle><circle cx="44.27" cy="32" r="1.69"></circle><circle cx="47.09" cy="31.82" r="1.58"></circle><circle cx="49.91" cy="31.82" r="1.45"></circle><circle cx="52.73" cy="32" r="1.3"></circle><circle cx="55.55" cy="32.34" r="1.14"></circle><circle cx="58.36" cy="32.81" r="0.97"></circle><circle cx="61.18" cy="33.38" r="0.79"></circle><circle cx="64" cy="34" r="0.6"></circle><circle cx="2" cy="44.42" r="0.6"></circle><circle cx="4.82" cy="44.83" r="0.79"></circle><circle cx="7.64" cy="45.1" r="0.97"></circle><circle cx="10.45" cy="45.2" r="1.14"></circle><circle cx="13.27" cy="45.12" r="1.3"></circle><circle cx="16.09" cy="44.87" r="1.45"></circle><circle cx="18.91" cy="44.46" r="1.58"></circle><circle cx="21.73" cy="43.94" r="1.69"></circle><circle cx="24.55" cy="43.34" r="1.78"></circle><circle cx="27.36" cy="42.72" r="1.85"></circle><circle cx="30.18" cy="42.11" r="1.89"></circle><circle cx="33" cy="41.58" r="1.9"></circle><circle cx="35.82" cy="41.17" r="1.89"></circle><circle cx="38.64" cy="40.9" r="1.85"></circle><circle cx="41.45" cy="40.8" r="1.78"></circle><circle cx="44.27" cy="40.88" r="1.69"></circle><circle cx="47.09" cy="41.13" r="1.58"></circle><circle cx="49.91" cy="41.54" r="1.45"></circle><circle cx="52.73" cy="42.06" r="1.3"></circle><circle cx="55.55" cy="42.66" r="1.14"></circle><circle cx="58.36" cy="43.28" r="0.97"></circle><circle cx="61.18" cy="43.89" r="0.79"></circle><circle cx="64" cy="44.42" r="0.6"></circle><circle cx="2" cy="53.17" r="0.6"></circle><circle cx="4.82" cy="53.19" r="0.79"></circle><circle cx="7.64" cy="53.03" r="0.97"></circle><circle cx="10.45" cy="52.7" r="1.14"></circle><circle cx="13.27" cy="52.24" r="1.3"></circle><circle cx="16.09" cy="51.68" r="1.45"></circle><circle cx="18.91" cy="51.06" r="1.58"></circle><circle cx="21.73" cy="50.44" r="1.69"></circle><circle cx="24.55" cy="49.86" r="1.78"></circle><circle cx="27.36" cy="49.38" r="1.85"></circle><circle cx="30.18" cy="49.03" r="1.89"></circle><circle cx="33" cy="48.83" r="1.9"></circle><circle cx="35.82" cy="48.81" r="1.89"></circle><circle cx="38.64" cy="48.97" r="1.85"></circle><circle cx="41.45" cy="49.3" r="1.78"></circle><circle cx="44.27" cy="49.76" r="1.69"></circle><circle cx="47.09" cy="50.32" r="1.58"></circle><circle cx="49.91" cy="50.94" r="1.45"></circle><circle cx="52.73" cy="51.56" r="1.3"></circle><circle cx="55.55" cy="52.14" r="1.14"></circle><circle cx="58.36" cy="52.62" r="0.97"></circle><circle cx="61.18" cy="52.97" r="0.79"></circle><circle cx="64" cy="53.17" r="0.6"></circle><circle cx="2" cy="61.9" r="0.6"></circle><circle cx="4.82" cy="61.51" r="0.79"></circle><circle cx="7.64" cy="61" r="0.97"></circle><circle cx="10.45" cy="60.4" r="1.14"></circle><circle cx="13.27" cy="59.78" r="1.3"></circle><circle cx="16.09" cy="59.17" r="1.45"></circle><circle cx="18.91" cy="58.63" r="1.58"></circle><circle cx="21.73" cy="58.2" r="1.69"></circle><circle cx="24.55" cy="57.92" r="1.78"></circle><circle cx="27.36" cy="57.8" r="1.85"></circle><circle cx="30.18" cy="57.86" r="1.89"></circle><circle cx="33" cy="58.1" r="1.9"></circle><circle cx="35.82" cy="58.49" r="1.89"></circle><circle cx="38.64" cy="59" r="1.85"></circle><circle cx="41.45" cy="59.6" r="1.78"></circle><circle cx="44.27" cy="60.22" r="1.69"></circle><circle cx="47.09" cy="60.83" r="1.58"></circle><circle cx="49.91" cy="61.37" r="1.45"></circle><circle cx="52.73" cy="61.8" r="1.3"></circle><circle cx="55.55" cy="62.08" r="1.14"></circle><circle cx="58.36" cy="62.2" r="0.97"></circle><circle cx="61.18" cy="62.14" r="0.79"></circle><circle cx="64" cy="61.9" r="0.6"></circle><path d="M 43 87 L 43 69 C 35 68, 30 63, 29 54 C 24 52, 23 43, 28 34 C 35 24, 47 20, 57 27 C 62 31, 62 39, 58 44 L 65 51 C 66 53, 64 55, 59 56 C 56 57, 56 60, 58 63 C 60 66, 58 69, 53 71 C 50 72, 49 75, 49 87 Z"></path></g></g>
  <text x="150" y="60" dominant-baseline="central" font-family="&#39;Playfair Display&#39;, serif" font-weight="500" font-size="72" fill="#2C2418" letter-spacing="0.5">MindFlow</text>
</svg>